<svg id="Agrupar_2" data-name="Agrupar 2" xmlns="http://www.w3.org/2000/svg" width="2000" height="2000" viewBox="0 0 2000 2000">
  <defs>
    <style>
      .cls-1 {
        fill: #343434;
        fill-rule: evenodd;
      }
    </style>
  </defs>
  <path id="Forma_7" data-name="Forma 7" class="cls-1" d="M1987.99,1480.26c-22.22,118.87-82.91,184.22-144.49,261.56-26.62,33.41-54.77,68.64-104.76,78.34L605.693,1840.65q-160.731,1.815-321.492,3.62c-28.72-7.99-52.979-22.21-73.449-38.57q-32.508-33.75-65.021-67.5c-62.817-78.07-113.7-125.48-134.858-249.5C-3,1407.39,29.7,1315.93,51.812,1262.1c10.152-24.71,16.553-50.08,36.123-65.09,15.434-11.83,46.854-22.08,73.449-14.46,0.8-.4,1.606-0.8,2.408-1.21,1.8-25.52,8.6-56.41,3.612-85.57-12.759-74.55-40.817-180.646-24.081-267.584,15.364-79.812,55.044-145.629,115.592-179.592v-1.205c-28.414-31.424-52.05-96.39-2.408-122.942,8.657-4.631,21.449-11.571,37.327-8.438L342,534.089c0.279-50.344,52.445-130.587,86.7-145.843,53.989-24.049,49.74,34.64,91.51-20.49l27.694-22.9c17.858-13.419,40.065-25.791,61.409-34.955,47.771-20.509,104.669-30.655,143.286-60.265,32.193-24.684,57.984-84.961,101.144-92.81,47.106-8.566,73.206,36.83,96.327,55.445,51.948-16.955,136.728-65.359,213.128-42.186,27.17,8.242,48.82,26.2,69.83,40.981,41.03,28.869,85.72,55.9,144.49,66.292,42.78,7.565,94.87.072,130.04-8.437,35.91-8.686,80.95-29.783,113.19-4.822,35.19,27.246,22.92,125.182,7.22,166.334-7.98,20.933-20.57,38.5-32.51,55.445,18.76,52.083,76.24,80.884,132.45,96.425,39.62,10.953,87.68,5.276,108.37,34.954,16.29,23.356,10.72,73.839,0,101.246q-7.215,13.86-14.45,27.723,9.63,14.462,19.27,28.927c15.41,26.344,22.8,58.737,28.9,94.015,11.16,64.631-13.68,172.923-28.9,221.783-5.73,18.39-17.07,36.6-18.06,57.85,26.21-.93,49-0.94,66.22,9.64,25.88,15.91,37.89,49.25,50.57,78.35C1966.84,1298.76,2005.82,1384.83,1987.99,1480.26ZM289.633,1561.74l-56.953,84.07L115.047,1421.83,289.08,1556.42l-25.594-246.54s-142.544-86.86-160.546-43.4C-3.806,1524.2,77.547,1625.85,242.193,1780.16c48.3,45.26,71.488,13.23,71.488,13.23Zm27.511-283.16,64.981,131.76s127.1,30.39,177.516,37.45,218.6-.21,218.6-0.21L879.6,1208.23l-28.28-70.88-442.707-32.71ZM1609.6,1029.04c-4.85-39.882-13.77-83.446-13.77-83.446s-18.24,42.43-45.95,40.206-55.73-26.083-55.73-26.083,24.62,2.135,26.37-36.163-35.18-113.835-35.18-113.835-21.11,15.579-20.15,40.975,10.67,47.81,10.67,47.81-43.92,13.437-73.81-7.3-51.39-58.161-51.39-58.161-18.63,25.636-48.52,34.1-77.61-13.384-77.61-13.384,34.87-60.989,3.29-91.136-68.42-49.241-68.42-49.241-1.4,51.268-36.68,78.194-201.154,14.668-201.154,14.668,29.164-56.434-1.687-94.74S613.89,632.042,613.89,632.042s-10.445,28.579,12.957,37.923,51.586,0.31,51.586.31,10.685,73.447-29.334,76.832-177.254-22.682-177.254-22.682,33.5,89.825,25.759,136.157-40.4,99.188-60.445,122.927-24.841,53.371-24.841,53.371l54.086,2.72s82.118-101.216,130.953-135.548,213.516-37.985,213.516-37.985l-9.821-68.749s32.093,3.218,43.255,15.228,30.21,41.308,30.21,41.308l0.5-40.625s57.3,41.071,61.583,78.9-59.634,99.527-59.634,99.527-147.863-6.486-187.865,2.123-103.327,59.689-103.327,59.689L901.9,1081.06l47.815,64.38,126.608,6.35,27.3-53.41,384.63,12.83s-41.88-80.44-147.83-94.59-163.47-6.93-163.47-6.93-39.74-44.256-37.02-79.342,53.73-85.884,53.73-85.884l14.41,50.2s151.21-11.693,222.89,34.176S1596,1093.29,1596,1093.29,1614.44,1068.93,1609.6,1029.04Zm33.45,154.48-488.09-29.44-38.01,72.07L1190.08,1471s189.56,22.5,232.57,25.39,170.3-22.74,170.3-22.74l77.77-115.85Zm9.12,374s-134.78,17.85-178.95,20.43-213.84-8.49-213.84-8.49l-81.6,176.22-70.68-38.12-40.85,51.19-93.306,1.67-47.815-64.38-104.335,3.09L918.685,1610l127.835,6.33s50.75-89.78,35.63-137.25-81.47-229.93-81.47-229.93-23.43-1.81-36.718,6.81-30.212,27.61-30.212,27.61-29.867,99.62-50.448,132.6-79.168,106.03-79.168,106.03-167.092,15.17-222.11,10.12-205.579-27.1-205.579-27.1l-38.782-39.93-1.276,342.18,1310.573-11.24,43.46-297.24Zm230.66-357.35c-22.61-41.25-154.89,60.61-154.89,60.61l-36.55,501.58s26.53,29.32,69.63-20.93C1907.97,1570.12,2016.88,1444.75,1882.83,1200.17Zm-14.66,136.54-64.86,244.59-77.06-71.9Zm-480.26,65.71a61.42,61.42,0,0,1-65.51,57.07l-1.72-.12a61.465,61.465,0,0,1-56.91-65.69l7.44-106.17a61.414,61.414,0,0,1,65.51-57.07l1.71,0.13a61.221,61.221,0,0,1,46.61,27.04l-36.59,35.31,46.36,10.99Zm-738.449,21.6h-1.72a61.441,61.441,0,0,1-61.467-61.42L586.1,1256.17a61.442,61.442,0,0,1,61.262-61.63l1.72-.01a61.193,61.193,0,0,1,48.564,23.81l-36.482,35.2,49.4,11.71,0.162,97.14A61.449,61.449,0,0,1,649.461,1424.02Z"/>
</svg>
